<svg id="Elements_Icon_Small_Copy_4" data-name="Elements/Icon/Small Copy 4" xmlns="http://www.w3.org/2000/svg" xmlns:xlink="http://www.w3.org/1999/xlink" width="30" height="30" viewBox="0 0 30 30">
  <defs>
    <clipPath id="clip-path">
      <path id="Combined_Shape" data-name="Combined Shape" d="M.5,13V6h3v7ZM0,2A2,2,0,1,1,2,4,2,2,0,0,1,0,2Z" transform="translate(13 8)" fill="#fff" stroke="#979797" stroke-miterlimit="10" stroke-width="1"/>
    </clipPath>
  </defs>
  <g id="Icon">
    <rect id="BoundingBox" width="30" height="30" fill="none"/>
    <g id="Group_30" data-name="Group 30">
      <g id="Combined_Shape-2" data-name="Combined Shape" transform="translate(13 8)" fill="#fff" stroke-miterlimit="10">
        <path d="M 3.000100135803223 12.49960041046143 L 1.000400066375732 12.49960041046143 L 1.000400066375732 6.500300407409668 L 3.000100135803223 6.500300407409668 L 3.000100135803223 12.49960041046143 Z M 1.999800086021423 3.499600172042847 C 1.172810077667236 3.499600172042847 0.5000000596046448 2.82679009437561 0.5000000596046448 1.999800205230713 C 0.5000000596046448 1.172810196876526 1.172810077667236 0.5000001788139343 1.999800086021423 0.5000001788139343 C 2.82679009437561 0.5000001788139343 3.499600172042847 1.172810196876526 3.499600172042847 1.999800205230713 C 3.499600172042847 2.82679009437561 2.82679009437561 3.499600172042847 1.999800086021423 3.499600172042847 Z" stroke="none"/>
        <path d="M 2.500100135803223 11.99960041046143 L 2.500100135803223 7.000300407409668 L 1.500400066375732 7.000300407409668 L 1.500400066375732 11.99960041046143 L 2.500100135803223 11.99960041046143 M 1.999800086021423 2.999600172042847 C 2.551090002059937 2.999600172042847 2.999600172042847 2.551090240478516 2.999600172042847 1.999800205230713 C 2.999600172042847 1.44851016998291 2.551090002059937 1.000000238418579 1.999800086021423 1.000000238418579 C 1.448510050773621 1.000000238418579 1.00000011920929 1.44851016998291 1.00000011920929 1.999800205230713 C 1.00000011920929 2.551090240478516 1.448510050773621 2.999600172042847 1.999800086021423 2.999600172042847 M 3.500100135803223 12.99960041046143 L 0.5004000663757324 12.99960041046143 L 0.5004000663757324 6.000300407409668 L 3.500100135803223 6.000300407409668 L 3.500100135803223 12.99960041046143 Z M 1.999800086021423 3.999600172042847 C 0.8955000638961792 3.999600172042847 8.602142287372772e-08 3.105000257492065 8.602142287372772e-08 1.999800205230713 C 8.602142287372772e-08 0.8955001831054688 0.8955000638961792 2.052307195299363e-07 1.999800086021423 2.052307195299363e-07 C 3.105000019073486 2.052307195299363e-07 3.999600172042847 0.8955001831054688 3.999600172042847 1.999800205230713 C 3.999600172042847 3.105000257492065 3.105000019073486 3.999600172042847 1.999800086021423 3.999600172042847 Z" stroke="none" fill="#979797"/>
      </g>
      <g id="Mask_Group_39" data-name="Mask Group 39" clip-path="url(#clip-path)">
        <g id="Icon-Color">
          <rect id="Swatch-NeonBlue" width="30" height="30" fill="#2cfef6"/>
        </g>
      </g>
    </g>
  </g>
</svg>
