<svg id="Elements_Icon_Small_Copy" data-name="Elements/Icon/Small Copy" xmlns="http://www.w3.org/2000/svg" xmlns:xlink="http://www.w3.org/1999/xlink" width="30" height="30" viewBox="0 0 30 30">
  <defs>
    <clipPath id="clip-path">
      <path id="_" data-name="?" d="M4.18,13.613a2.051,2.051,0,0,1-1.4-.446,1.622,1.622,0,0,1-.5-1.277,1.678,1.678,0,0,1,.482-1.283,2.023,2.023,0,0,1,1.422-.451,1.955,1.955,0,0,1,1.386.455,1.682,1.682,0,0,1,.482,1.278,1.629,1.629,0,0,1-.5,1.273A1.977,1.977,0,0,1,4.18,13.613ZM5.434,8.729H2.663V7.953a2.9,2.9,0,0,1,.361-1.494A3.807,3.807,0,0,1,4.306,5.272a4.848,4.848,0,0,0,1.052-.831,1.266,1.266,0,0,0,.32-.849.685.685,0,0,0-.343-.6,1.631,1.631,0,0,0-.894-.221,7.069,7.069,0,0,0-3.187.966L0,1.282A9.391,9.391,0,0,1,4.694,0,5.078,5.078,0,0,1,7.853.885,2.893,2.893,0,0,1,9,3.295a3.449,3.449,0,0,1-.51,1.891A5.218,5.218,0,0,1,6.861,6.7a6.367,6.367,0,0,0-1.187.9,1.019,1.019,0,0,0-.239.673v.459Z" transform="translate(11 8)" fill="#1b0c69"/>
    </clipPath>
  </defs>
  <g id="Icon">
    <rect id="BoundingBox" width="30" height="30" fill="none"/>
    <g id="Group_28" data-name="Group 28">
      <path id="_2" data-name="?" d="M4.18,13.613a2.051,2.051,0,0,1-1.4-.446,1.622,1.622,0,0,1-.5-1.277,1.678,1.678,0,0,1,.482-1.283,2.023,2.023,0,0,1,1.422-.451,1.955,1.955,0,0,1,1.386.455,1.682,1.682,0,0,1,.482,1.278,1.629,1.629,0,0,1-.5,1.273A1.977,1.977,0,0,1,4.18,13.613ZM5.434,8.729H2.663V7.953a2.9,2.9,0,0,1,.361-1.494A3.807,3.807,0,0,1,4.306,5.272a4.848,4.848,0,0,0,1.052-.831,1.266,1.266,0,0,0,.32-.849.685.685,0,0,0-.343-.6,1.631,1.631,0,0,0-.894-.221,7.069,7.069,0,0,0-3.187.966L0,1.282A9.391,9.391,0,0,1,4.694,0,5.078,5.078,0,0,1,7.853.885,2.893,2.893,0,0,1,9,3.295a3.449,3.449,0,0,1-.51,1.891A5.218,5.218,0,0,1,6.861,6.7a6.367,6.367,0,0,0-1.187.9,1.019,1.019,0,0,0-.239.673v.459Z" transform="translate(11 8)" fill="#1b0c69"/>
      <g id="Mask_Group_37" data-name="Mask Group 37" clip-path="url(#clip-path)">
        <g id="Icon-Color">
          <rect id="Swatch-NeonBlue" width="30" height="30" fill="#2cfef6"/>
        </g>
      </g>
    </g>
  </g>
</svg>
