<svg id="Elements_Icon_Small_Copy_3" data-name="Elements/Icon/Small Copy 3" xmlns="http://www.w3.org/2000/svg" xmlns:xlink="http://www.w3.org/1999/xlink" width="30" height="30" viewBox="0 0 30 30">
  <defs>
    <clipPath id="clip-path">
      <path id="Logo-Primary" d="M8.07,16.96H4.131a1.291,1.291,0,0,1-1.289-1.289v-.8A1.3,1.3,0,0,1,2.32,14.4a1.279,1.279,0,0,1-.2-.69v-.837a.732.732,0,0,1,.017-.154,4.922,4.922,0,0,0-.784-2.509A6.407,6.407,0,0,1,2.01,1.621,6.051,6.051,0,0,1,3.909.415,5.919,5.919,0,0,1,6.1,0c.146,0,.3.005.442.016a6.213,6.213,0,0,1,5.643,5.745,6.387,6.387,0,0,1-1.352,4.482,3.545,3.545,0,0,0-.766,2.2v.283a.721.721,0,0,1,.018.157v.837a1.279,1.279,0,0,1-.2.69,1.3,1.3,0,0,1-.522.467v.8A1.291,1.291,0,0,1,8.07,16.96ZM3.743,15v.667a.388.388,0,0,0,.388.388H8.07a.388.388,0,0,0,.388-.388V15ZM3.02,13.049v.666a.388.388,0,0,0,.388.388H8.793a.388.388,0,0,0,.388-.388v-.666ZM8.067,3.5h0A1.289,1.289,0,0,1,9.359,4.785v.808a1.286,1.286,0,0,1,.722,1.156v.836a.732.732,0,0,1-.73.732l-2.8,0,.006,3.825h2.62a4.454,4.454,0,0,1,.951-2.464,5.487,5.487,0,0,0,1.16-3.852A5.306,5.306,0,0,0,6.475.915C6.35.906,6.223.9,6.1.9A5.089,5.089,0,0,0,2.624,2.281,5.505,5.505,0,0,0,2.06,9.659a5.4,5.4,0,0,1,.927,2.488H5.652L5.646,8.323l-2.8,0h0A.731.731,0,0,1,2.119,7.6V6.76a1.279,1.279,0,0,1,.2-.69A1.3,1.3,0,0,1,2.841,5.6V4.793A1.291,1.291,0,0,1,4.128,3.5Zm.725,2.866h0l-5.385.009a.388.388,0,0,0-.387.388v.667l6.161-.011V6.75a.388.388,0,0,0-.388-.387ZM8.069,4.4,4.129,4.4a.388.388,0,0,0-.387.388v.667l4.715-.008V4.785A.388.388,0,0,0,8.07,4.4Z" transform="translate(0 0)" fill="#fff"/>
    </clipPath>
  </defs>
  <rect id="Rectangle" width="30" height="30" fill="none"/>
  <g id="Icon" transform="translate(5 3)">
    <g id="Group_31" data-name="Group 31" transform="translate(3.867 3.2)">
      <path id="Logo-Primary-2" data-name="Logo-Primary" d="M8.07,16.96H4.131a1.291,1.291,0,0,1-1.289-1.289v-.8A1.3,1.3,0,0,1,2.32,14.4a1.279,1.279,0,0,1-.2-.69v-.837a.732.732,0,0,1,.017-.154,4.922,4.922,0,0,0-.784-2.509A6.407,6.407,0,0,1,2.01,1.621,6.051,6.051,0,0,1,3.909.415,5.919,5.919,0,0,1,6.1,0c.146,0,.3.005.442.016a6.213,6.213,0,0,1,5.643,5.745,6.387,6.387,0,0,1-1.352,4.482,3.545,3.545,0,0,0-.766,2.2v.283a.721.721,0,0,1,.018.157v.837a1.279,1.279,0,0,1-.2.69,1.3,1.3,0,0,1-.522.467v.8A1.291,1.291,0,0,1,8.07,16.96ZM3.743,15v.667a.388.388,0,0,0,.388.388H8.07a.388.388,0,0,0,.388-.388V15ZM3.02,13.049v.666a.388.388,0,0,0,.388.388H8.793a.388.388,0,0,0,.388-.388v-.666ZM8.067,3.5h0A1.289,1.289,0,0,1,9.359,4.785v.808a1.286,1.286,0,0,1,.722,1.156v.836a.732.732,0,0,1-.73.732l-2.8,0,.006,3.825h2.62a4.454,4.454,0,0,1,.951-2.464,5.487,5.487,0,0,0,1.16-3.852A5.306,5.306,0,0,0,6.475.915C6.35.906,6.223.9,6.1.9A5.089,5.089,0,0,0,2.624,2.281,5.505,5.505,0,0,0,2.06,9.659a5.4,5.4,0,0,1,.927,2.488H5.652L5.646,8.323l-2.8,0h0A.731.731,0,0,1,2.119,7.6V6.76a1.279,1.279,0,0,1,.2-.69A1.3,1.3,0,0,1,2.841,5.6V4.793A1.291,1.291,0,0,1,4.128,3.5Zm.725,2.866h0l-5.385.009a.388.388,0,0,0-.387.388v.667l6.161-.011V6.75a.388.388,0,0,0-.388-.387ZM8.069,4.4,4.129,4.4a.388.388,0,0,0-.387.388v.667l4.715-.008V4.785A.388.388,0,0,0,8.07,4.4Z" transform="translate(0 0)" fill="#fff"/>
      <g id="Mask_Group_40" data-name="Mask Group 40" clip-path="url(#clip-path)">
        <g id="Color" transform="translate(-3.867 -3.2)">
          <rect id="Swatch-NeonBlue" width="20" height="23.333" fill="#2cfef6"/>
        </g>
      </g>
    </g>
  </g>
</svg>
