<svg id="Bits_Logos_02-Horizontal" data-name="Bits/Logos/02-Horizontal" xmlns="http://www.w3.org/2000/svg" xmlns:xlink="http://www.w3.org/1999/xlink" width="90" height="46" viewBox="0 0 90 46">
  <defs>
    <clipPath id="clip-path">
      <path id="Logo-Horizontal" d="M14.149,29.7H7.242a2.262,2.262,0,0,1-2.261-2.258v-1.4a2.28,2.28,0,0,1-.914-.817,2.24,2.24,0,0,1-.353-1.208V22.552a1.282,1.282,0,0,1,.029-.268,8.612,8.612,0,0,0-1.375-4.4A11.21,11.21,0,0,1,3.523,2.838,10.62,10.62,0,0,1,6.854.727,10.392,10.392,0,0,1,10.692,0c.254,0,.515.009.774.028A10.888,10.888,0,0,1,21.36,10.089a11.174,11.174,0,0,1-2.371,7.849,6.207,6.207,0,0,0-1.343,3.845v.5a1.3,1.3,0,0,1,.03.272v1.465a2.239,2.239,0,0,1-.353,1.208,2.277,2.277,0,0,1-.914.818v1.4A2.262,2.262,0,0,1,14.149,29.7ZM6.562,26.276v1.167a.68.68,0,0,0,.68.679h6.907a.68.68,0,0,0,.68-.679V26.276ZM5.295,22.851v1.167a.68.68,0,0,0,.68.679h9.441a.68.68,0,0,0,.68-.679V22.851ZM14.144,6.123h0a2.259,2.259,0,0,1,2.261,2.256V9.794a2.251,2.251,0,0,1,1.266,2.024v1.465a1.283,1.283,0,0,1-1.28,1.282l-4.917.009.01,6.7h4.6a7.8,7.8,0,0,1,.5-2.282,7.717,7.717,0,0,1,1.16-2.033,9.6,9.6,0,0,0,2.033-6.745A9.3,9.3,0,0,0,11.352,1.6c-.22-.016-.443-.024-.662-.024A8.929,8.929,0,0,0,4.6,3.994a9.633,9.633,0,0,0-.989,12.92,9.452,9.452,0,0,1,1.625,4.358H9.91l-.011-6.7L5,14.584H5A1.281,1.281,0,0,1,3.715,13.3V11.839a2.238,2.238,0,0,1,.352-1.209,2.278,2.278,0,0,1,.916-.818V8.395a2.262,2.262,0,0,1,2.257-2.26Zm1.27,5.019h0l-9.441.016a.679.679,0,0,0-.679.679v1.168l10.8-.018V11.82a.679.679,0,0,0-.68-.678ZM14.147,7.7h0L7.24,7.713a.68.68,0,0,0-.679.68V9.561l8.267-.014V8.38a.68.68,0,0,0-.68-.678ZM75.858,28.24a4.009,4.009,0,0,1-2.314-.68c-.348-.257-.49-.454-.49-.68a.778.778,0,0,1,.653-.748,1.034,1.034,0,0,1,.523.241l.048.031a2.781,2.781,0,0,0,1.593.544c.952,0,1.592-.492,1.592-1.223,0-.817-.877-1.193-1.806-1.592-1.156-.5-2.467-1.059-2.467-2.582a2.229,2.229,0,0,1,.817-1.779,3.288,3.288,0,0,1,2.123-.668,3.982,3.982,0,0,1,2.15.585c.343.214.476.389.476.625,0,.337-.289.748-.626.748a1.133,1.133,0,0,1-.485-.2l-.059-.033A2.93,2.93,0,0,0,76.13,20.4c-.885,0-1.456.422-1.456,1.074,0,.7.78,1.032,1.683,1.416a6.931,6.931,0,0,1,1.744.949,2.241,2.241,0,0,1,.847,1.808,2.367,2.367,0,0,1-.886,1.915A3.474,3.474,0,0,1,75.858,28.24Zm-7.607,0a4.009,4.009,0,0,1-2.314-.68c-.348-.257-.49-.454-.49-.68a.778.778,0,0,1,.653-.748,1.034,1.034,0,0,1,.523.241l.048.031a2.781,2.781,0,0,0,1.592.544c.952,0,1.592-.492,1.592-1.223,0-.817-.877-1.193-1.806-1.592-1.156-.5-2.467-1.059-2.467-2.582a2.229,2.229,0,0,1,.817-1.779,3.288,3.288,0,0,1,2.123-.668,3.983,3.983,0,0,1,2.151.585c.343.214.476.389.476.625,0,.337-.289.748-.626.748a1.128,1.128,0,0,1-.484-.2l-.06-.033a2.93,2.93,0,0,0-1.457-.435c-.885,0-1.456.422-1.456,1.074,0,.7.78,1.032,1.683,1.416a6.931,6.931,0,0,1,1.744.949,2.241,2.241,0,0,1,.847,1.808,2.367,2.367,0,0,1-.886,1.915A3.474,3.474,0,0,1,68.251,28.24Zm-13.608-.082a1.262,1.262,0,0,1-.731-.2,1.535,1.535,0,0,1-.466-.547l-3.838-6.226v6.376c0,.4-.238.6-.708.6s-.707-.2-.707-.6V19.989c0-.539.316-.8.966-.8a1.3,1.3,0,0,1,1.279.72l3.661,6.1V19.785c0-.4.243-.6.721-.6s.708.2.708.6v7.572C55.528,27.889,55.23,28.159,54.643,28.159Zm-12.1,0c-.5,0-.748-.2-.748-.6V20.573H39.632c-.4,0-.6-.224-.6-.666s.2-.652.6-.652h5.825c.4,0,.6.219.6.652s-.2.666-.6.666H43.293v6.987C43.293,27.957,43.041,28.159,42.545,28.159Zm-6.382,0c-.5,0-.748-.2-.748-.6V19.785c0-.4.252-.6.748-.6s.735.2.735.6v7.776C36.9,27.957,36.65,28.159,36.162,28.159Zm-7.212,0c-.5,0-.749-.2-.749-.6V20.016c0-.533.228-.761.762-.761h3.674c.4,0,.6.219.6.652s-.2.666-.6.666H29.685v3h2.654c.4,0,.6.22.6.653s-.2.666-.6.666H29.685v2.664C29.685,27.957,29.438,28.159,28.95,28.159Zm34.171-.068H59.065c-.534,0-.762-.228-.762-.761V20.016c0-.533.228-.761.762-.761h3.96c.4,0,.6.22.6.652s-.2.666-.6.666H59.732v2.3h2.749c.4,0,.6.219.6.652s-.2.653-.6.653H59.732v2.6h3.389c.4,0,.6.22.6.652S63.518,28.091,63.121,28.091ZM49.594,13.36c-.564,0-.731-.179-.857-.53l-.612-1.7H44.573l-.613,1.7c-.116.336-.289.53-.83.53-.458,0-.68-.138-.68-.422a1.6,1.6,0,0,1,.123-.5l2.776-7.273c.227-.608.452-.775,1.048-.775a1.051,1.051,0,0,1,.672.168,1.277,1.277,0,0,1,.376.606l2.735,7.273a1.582,1.582,0,0,1,.123.5C50.3,13.226,50.077,13.36,49.594,13.36ZM46.355,6.223l-1.32,3.629h2.627Zm21,7.137a1.263,1.263,0,0,1-.732-.2,1.534,1.534,0,0,1-.466-.547L62.317,6.386v6.376c0,.4-.238.6-.707.6s-.708-.2-.708-.6V5.189c0-.539.316-.8.966-.8a1.305,1.305,0,0,1,1.279.72l3.661,6.1V4.986c0-.4.243-.6.721-.6s.707.2.707.6v7.572C68.238,13.09,67.94,13.36,67.353,13.36Zm-9.322,0a1.107,1.107,0,0,1-1.116-.666l-1.728-2.515a6,6,0,0,1-.707.04c-.227,0-.456-.014-.572-.027v2.569c0,.4-.238.6-.707.6s-.722-.2-.722-.6V5.53c0-.436,0-.812.681-1.006a6.525,6.525,0,0,1,1.552-.163,4.33,4.33,0,0,1,2.642.732,2.412,2.412,0,0,1,.725.891A2.836,2.836,0,0,1,58.331,7.2a2.82,2.82,0,0,1-.449,1.592,2.908,2.908,0,0,1-1.265,1.031l1.633,2.27.075.107,0,.006c.281.4.4.569.4.757C58.725,13.231,58.5,13.36,58.031,13.36ZM54.7,5.652a4.426,4.426,0,0,0-.776.068V8.914a4.49,4.49,0,0,0,.612.041,2.766,2.766,0,0,0,1.686-.444,1.456,1.456,0,0,0,.573-1.229C56.793,6.231,56.048,5.652,54.7,5.652ZM40.2,13.292H36.149c-.534,0-.762-.228-.762-.761V5.217c0-.534.228-.761.762-.761h3.96c.4,0,.6.22.6.653s-.2.666-.6.666H36.816v2.3h2.749c.4,0,.6.22.6.652s-.2.652-.6.652H36.816v2.6H40.2c.4,0,.6.22.6.652S40.6,13.292,40.2,13.292Zm-7.553,0H28.964a.656.656,0,0,1-.762-.761V4.986c0-.4.252-.6.749-.6s.735.2.735.6v6.987h2.967c.4,0,.6.22.6.652S33.049,13.292,32.652,13.292Z" transform="translate(0 0)" fill="#fff"/>
    </clipPath>
  </defs>
  <g id="Group_32" data-name="Group 32" transform="translate(6.316 7.097)">
    <path id="Logo-Horizontal-2" data-name="Logo-Horizontal" d="M14.149,29.7H7.242a2.262,2.262,0,0,1-2.261-2.258v-1.4a2.28,2.28,0,0,1-.914-.817,2.24,2.24,0,0,1-.353-1.208V22.552a1.282,1.282,0,0,1,.029-.268,8.612,8.612,0,0,0-1.375-4.4A11.21,11.21,0,0,1,3.523,2.838,10.62,10.62,0,0,1,6.854.727,10.392,10.392,0,0,1,10.692,0c.254,0,.515.009.774.028A10.888,10.888,0,0,1,21.36,10.089a11.174,11.174,0,0,1-2.371,7.849,6.207,6.207,0,0,0-1.343,3.845v.5a1.3,1.3,0,0,1,.03.272v1.465a2.239,2.239,0,0,1-.353,1.208,2.277,2.277,0,0,1-.914.818v1.4A2.262,2.262,0,0,1,14.149,29.7ZM6.562,26.276v1.167a.68.68,0,0,0,.68.679h6.907a.68.68,0,0,0,.68-.679V26.276ZM5.295,22.851v1.167a.68.68,0,0,0,.68.679h9.441a.68.68,0,0,0,.68-.679V22.851ZM14.144,6.123h0a2.259,2.259,0,0,1,2.261,2.256V9.794a2.251,2.251,0,0,1,1.266,2.024v1.465a1.283,1.283,0,0,1-1.28,1.282l-4.917.009.01,6.7h4.6a7.8,7.8,0,0,1,.5-2.282,7.717,7.717,0,0,1,1.16-2.033,9.6,9.6,0,0,0,2.033-6.745A9.3,9.3,0,0,0,11.352,1.6c-.22-.016-.443-.024-.662-.024A8.929,8.929,0,0,0,4.6,3.994a9.633,9.633,0,0,0-.989,12.92,9.452,9.452,0,0,1,1.625,4.358H9.91l-.011-6.7L5,14.584H5A1.281,1.281,0,0,1,3.715,13.3V11.839a2.238,2.238,0,0,1,.352-1.209,2.278,2.278,0,0,1,.916-.818V8.395a2.262,2.262,0,0,1,2.257-2.26Zm1.27,5.019h0l-9.441.016a.679.679,0,0,0-.679.679v1.168l10.8-.018V11.82a.679.679,0,0,0-.68-.678ZM14.147,7.7h0L7.24,7.713a.68.68,0,0,0-.679.68V9.561l8.267-.014V8.38a.68.68,0,0,0-.68-.678ZM75.858,28.24a4.009,4.009,0,0,1-2.314-.68c-.348-.257-.49-.454-.49-.68a.778.778,0,0,1,.653-.748,1.034,1.034,0,0,1,.523.241l.048.031a2.781,2.781,0,0,0,1.593.544c.952,0,1.592-.492,1.592-1.223,0-.817-.877-1.193-1.806-1.592-1.156-.5-2.467-1.059-2.467-2.582a2.229,2.229,0,0,1,.817-1.779,3.288,3.288,0,0,1,2.123-.668,3.982,3.982,0,0,1,2.15.585c.343.214.476.389.476.625,0,.337-.289.748-.626.748a1.133,1.133,0,0,1-.485-.2l-.059-.033A2.93,2.93,0,0,0,76.13,20.4c-.885,0-1.456.422-1.456,1.074,0,.7.78,1.032,1.683,1.416a6.931,6.931,0,0,1,1.744.949,2.241,2.241,0,0,1,.847,1.808,2.367,2.367,0,0,1-.886,1.915A3.474,3.474,0,0,1,75.858,28.24Zm-7.607,0a4.009,4.009,0,0,1-2.314-.68c-.348-.257-.49-.454-.49-.68a.778.778,0,0,1,.653-.748,1.034,1.034,0,0,1,.523.241l.048.031a2.781,2.781,0,0,0,1.592.544c.952,0,1.592-.492,1.592-1.223,0-.817-.877-1.193-1.806-1.592-1.156-.5-2.467-1.059-2.467-2.582a2.229,2.229,0,0,1,.817-1.779,3.288,3.288,0,0,1,2.123-.668,3.983,3.983,0,0,1,2.151.585c.343.214.476.389.476.625,0,.337-.289.748-.626.748a1.128,1.128,0,0,1-.484-.2l-.06-.033a2.93,2.93,0,0,0-1.457-.435c-.885,0-1.456.422-1.456,1.074,0,.7.78,1.032,1.683,1.416a6.931,6.931,0,0,1,1.744.949,2.241,2.241,0,0,1,.847,1.808,2.367,2.367,0,0,1-.886,1.915A3.474,3.474,0,0,1,68.251,28.24Zm-13.608-.082a1.262,1.262,0,0,1-.731-.2,1.535,1.535,0,0,1-.466-.547l-3.838-6.226v6.376c0,.4-.238.6-.708.6s-.707-.2-.707-.6V19.989c0-.539.316-.8.966-.8a1.3,1.3,0,0,1,1.279.72l3.661,6.1V19.785c0-.4.243-.6.721-.6s.708.2.708.6v7.572C55.528,27.889,55.23,28.159,54.643,28.159Zm-12.1,0c-.5,0-.748-.2-.748-.6V20.573H39.632c-.4,0-.6-.224-.6-.666s.2-.652.6-.652h5.825c.4,0,.6.219.6.652s-.2.666-.6.666H43.293v6.987C43.293,27.957,43.041,28.159,42.545,28.159Zm-6.382,0c-.5,0-.748-.2-.748-.6V19.785c0-.4.252-.6.748-.6s.735.2.735.6v7.776C36.9,27.957,36.65,28.159,36.162,28.159Zm-7.212,0c-.5,0-.749-.2-.749-.6V20.016c0-.533.228-.761.762-.761h3.674c.4,0,.6.219.6.652s-.2.666-.6.666H29.685v3h2.654c.4,0,.6.22.6.653s-.2.666-.6.666H29.685v2.664C29.685,27.957,29.438,28.159,28.95,28.159Zm34.171-.068H59.065c-.534,0-.762-.228-.762-.761V20.016c0-.533.228-.761.762-.761h3.96c.4,0,.6.22.6.652s-.2.666-.6.666H59.732v2.3h2.749c.4,0,.6.219.6.652s-.2.653-.6.653H59.732v2.6h3.389c.4,0,.6.22.6.652S63.518,28.091,63.121,28.091ZM49.594,13.36c-.564,0-.731-.179-.857-.53l-.612-1.7H44.573l-.613,1.7c-.116.336-.289.53-.83.53-.458,0-.68-.138-.68-.422a1.6,1.6,0,0,1,.123-.5l2.776-7.273c.227-.608.452-.775,1.048-.775a1.051,1.051,0,0,1,.672.168,1.277,1.277,0,0,1,.376.606l2.735,7.273a1.582,1.582,0,0,1,.123.5C50.3,13.226,50.077,13.36,49.594,13.36ZM46.355,6.223l-1.32,3.629h2.627Zm21,7.137a1.263,1.263,0,0,1-.732-.2,1.534,1.534,0,0,1-.466-.547L62.317,6.386v6.376c0,.4-.238.6-.707.6s-.708-.2-.708-.6V5.189c0-.539.316-.8.966-.8a1.305,1.305,0,0,1,1.279.72l3.661,6.1V4.986c0-.4.243-.6.721-.6s.707.2.707.6v7.572C68.238,13.09,67.94,13.36,67.353,13.36Zm-9.322,0a1.107,1.107,0,0,1-1.116-.666l-1.728-2.515a6,6,0,0,1-.707.04c-.227,0-.456-.014-.572-.027v2.569c0,.4-.238.6-.707.6s-.722-.2-.722-.6V5.53c0-.436,0-.812.681-1.006a6.525,6.525,0,0,1,1.552-.163,4.33,4.33,0,0,1,2.642.732,2.412,2.412,0,0,1,.725.891A2.836,2.836,0,0,1,58.331,7.2a2.82,2.82,0,0,1-.449,1.592,2.908,2.908,0,0,1-1.265,1.031l1.633,2.27.075.107,0,.006c.281.4.4.569.4.757C58.725,13.231,58.5,13.36,58.031,13.36ZM54.7,5.652a4.426,4.426,0,0,0-.776.068V8.914a4.49,4.49,0,0,0,.612.041,2.766,2.766,0,0,0,1.686-.444,1.456,1.456,0,0,0,.573-1.229C56.793,6.231,56.048,5.652,54.7,5.652ZM40.2,13.292H36.149c-.534,0-.762-.228-.762-.761V5.217c0-.534.228-.761.762-.761h3.96c.4,0,.6.22.6.653s-.2.666-.6.666H36.816v2.3h2.749c.4,0,.6.22.6.652s-.2.652-.6.652H36.816v2.6H40.2c.4,0,.6.22.6.652S40.6,13.292,40.2,13.292Zm-7.553,0H28.964a.656.656,0,0,1-.762-.761V4.986c0-.4.252-.6.749-.6s.735.2.735.6v6.987h2.967c.4,0,.6.22.6.652S33.049,13.292,32.652,13.292Z" transform="translate(0 0)" fill="#fff"/>
    <g id="Mask_Group_41" data-name="Mask Group 41" clip-path="url(#clip-path)">
      <g id="Color" transform="translate(-6.316 -7.097)">
        <rect id="Swatch-DkPurple" width="90" height="46" fill="#1b0c69"/>
      </g>
    </g>
  </g>
</svg>
