<svg xmlns="http://www.w3.org/2000/svg" xmlns:xlink="http://www.w3.org/1999/xlink" width="414.96" height="405.226" viewBox="0 0 414.96 405.226">
  <defs>
    <linearGradient id="linear-gradient" x1="0.961" y1="-0.185" x2="0.242" y2="0.568" gradientUnits="objectBoundingBox">
      <stop offset="0" stop-color="#fffd38" stop-opacity="0.761"/>
      <stop offset="1" stop-color="#fffd38" stop-opacity="0"/>
    </linearGradient>
  </defs>
  <path id="Shape_Copy_3" data-name="Shape Copy 3" d="M105.832,142.547c3-28.7,17.333-55.433,37.241-76.339,22.482-23.561,51.743-40.011,82.033-51.664A219.747,219.747,0,0,1,296.928.065c15.188-.428,38.356.857,47.8,15.936,6.092,9.682,4.634,22.276,1.2,33.157-9.525,30.159-32.35,55.262-38.957,86.106-1.2,5.74-1.888,11.738-.343,17.393,4.719,17.735,26.515,23.818,39.558,36.756,17.677,17.478,17.333,47.465,4.977,69.056-12.356,21.505-33.98,36.07-56.033,47.551a374.491,374.491,0,0,1-137.294,40.526c-40.33,3.77-82.033.771-119.1-15.679C23.37,324.1,8.1,313.9,2.347,298.138c-6.007-16.707.343-35.385,9.7-50.464,16.218-26.132,40.673-45.581,66.931-62.2a59.391,59.391,0,0,0,26.858-42.925Z" transform="matrix(-0.985, -0.174, 0.174, -0.985, 354.531, 405.226)" fill="url(#linear-gradient)"/>
</svg>
