<svg xmlns="http://www.w3.org/2000/svg" xmlns:xlink="http://www.w3.org/1999/xlink" width="653.043" height="661.265" viewBox="0 0 653.043 661.265">
  <defs>
    <linearGradient id="linear-gradient" x1="0.905" y1="0.46" x2="0.105" y2="0.835" gradientUnits="objectBoundingBox">
      <stop offset="0" stop-color="#fffd38" stop-opacity="0.761"/>
      <stop offset="1" stop-color="#fffd38" stop-opacity="0"/>
    </linearGradient>
  </defs>
  <path id="Shape_Copy_3" data-name="Shape Copy 3" d="M147.871,199.075c4.2-40.084,24.219-77.416,52.034-106.611,31.412-32.9,72.3-55.878,114.618-72.151A307.163,307.163,0,0,1,414.874.091c21.221-.6,53.592,1.2,66.781,22.256,8.512,13.521,6.474,31.11,1.679,46.306-13.308,42.118-45.2,77.176-54.432,120.252-1.679,8.017-2.638,16.393-.48,24.29,6.594,24.768,37.047,33.264,55.271,51.331,24.7,24.409,24.219,66.288,6.954,96.441-17.265,30.033-47.478,50.374-78.29,66.408a523.435,523.435,0,0,1-191.83,56.6c-56.35,5.265-114.618,1.077-166.412-21.9-21.461-9.453-42.8-23.691-50.835-45.708-8.393-23.332.48-49.417,13.548-70.476,22.66-36.494,56.83-63.656,93.517-86.868a82.939,82.939,0,0,0,37.527-59.946Z" transform="translate(212.577 661.265) rotate(-115)" fill="url(#linear-gradient)"/>
</svg>
