<svg xmlns="http://www.w3.org/2000/svg" xmlns:xlink="http://www.w3.org/1999/xlink" width="602.481" height="387.925" viewBox="0 0 602.481 387.925">
  <defs>
    <linearGradient id="linear-gradient" x1="0.693" y1="0.237" x2="0.17" y2="0.949" gradientUnits="objectBoundingBox">
      <stop offset="0" stop-color="#3f3381"/>
      <stop offset="0.284" stop-color="#302276"/>
      <stop offset="0.628" stop-color="#302276"/>
      <stop offset="0.89" stop-color="#3f3381"/>
    </linearGradient>
    <linearGradient id="linear-gradient-2" x1="0.947" y1="1.35" x2="0.386" y2="0.284" gradientUnits="objectBoundingBox">
      <stop offset="0" stop-color="#1b0c69"/>
      <stop offset="1" stop-color="#665c9a"/>
    </linearGradient>
    <linearGradient id="linear-gradient-3" x1="1.193" y1="-0.006" x2="0.031" y2="0.991" gradientUnits="objectBoundingBox">
      <stop offset="0" stop-color="#302276"/>
      <stop offset="0.216" stop-color="#302276"/>
      <stop offset="0.744" stop-color="#1b0c69"/>
      <stop offset="1" stop-color="#302276"/>
    </linearGradient>
    <linearGradient id="linear-gradient-4" x1="1.175" y1="0.011" x2="0.013" y2="1.008" xlink:href="#linear-gradient-3"/>
    <linearGradient id="linear-gradient-5" x1="1.191" y1="0.109" x2="-0.286" y2="1.151" gradientUnits="objectBoundingBox">
      <stop offset="0.842" stop-color="#54498e"/>
      <stop offset="1" stop-color="#302276"/>
    </linearGradient>
    <linearGradient id="linear-gradient-6" x1="2.254" y1="2.198" x2="0.427" y2="0.427" gradientUnits="objectBoundingBox">
      <stop offset="0" stop-color="#1b0c69"/>
      <stop offset="1" stop-color="#3f3381"/>
    </linearGradient>
    <linearGradient id="linear-gradient-7" x1="0.23" y1="-0.223" x2="0.519" y2="0.567" gradientUnits="objectBoundingBox">
      <stop offset="0" stop-color="#1b0c69"/>
      <stop offset="0.533" stop-color="#665c9a"/>
    </linearGradient>
    <linearGradient id="linear-gradient-8" x1="1.035" y1="0.321" x2="-0.639" y2="1.095" gradientUnits="objectBoundingBox">
      <stop offset="0" stop-color="#ffc67d"/>
      <stop offset="1" stop-color="#ffa633"/>
    </linearGradient>
    <linearGradient id="linear-gradient-9" x1="1.12" y1="-0.302" x2="-0.521" y2="1.47" gradientUnits="objectBoundingBox">
      <stop offset="0" stop-color="#ffd399"/>
      <stop offset="1" stop-color="#ffa633"/>
    </linearGradient>
    <linearGradient id="linear-gradient-10" x1="0.83" y1="1.003" x2="0.452" y2="0.19" gradientUnits="objectBoundingBox">
      <stop offset="0" stop-color="#ffa633"/>
      <stop offset="0.312" stop-color="#ffc67d"/>
      <stop offset="0.59" stop-color="#ffc67d"/>
      <stop offset="1" stop-color="#ffa633"/>
    </linearGradient>
    <linearGradient id="linear-gradient-11" x1="0.437" y1="0.561" x2="1.21" y2="0.067" gradientUnits="objectBoundingBox">
      <stop offset="0" stop-color="#9e7fef"/>
      <stop offset="1" stop-color="#754ae9"/>
    </linearGradient>
    <linearGradient id="linear-gradient-12" x1="0.296" y1="0.787" x2="0.977" y2="0.232" xlink:href="#linear-gradient-11"/>
    <linearGradient id="linear-gradient-13" x1="0.502" y1="0.941" x2="0.496" y2="0.46" gradientUnits="objectBoundingBox">
      <stop offset="0" stop-color="#5d2ae5"/>
      <stop offset="1" stop-color="#754ae9"/>
    </linearGradient>
    <linearGradient id="linear-gradient-14" x1="1.132" y1="0.956" x2="0.433" y2="0.18" gradientUnits="objectBoundingBox">
      <stop offset="0" stop-color="#ffa633"/>
      <stop offset="0.186" stop-color="#ffd399"/>
      <stop offset="0.504" stop-color="#ffd399"/>
      <stop offset="1" stop-color="#ffa633"/>
    </linearGradient>
    <linearGradient id="linear-gradient-15" x1="0.034" y1="0.462" x2="1.496" y2="0.586" gradientUnits="objectBoundingBox">
      <stop offset="0" stop-color="#a386f0"/>
      <stop offset="1" stop-color="#754ae9"/>
    </linearGradient>
    <radialGradient id="radial-gradient" cx="0.635" cy="0.439" r="1.221" gradientUnits="objectBoundingBox">
      <stop offset="0" stop-color="#7d55ea"/>
      <stop offset="1" stop-color="#5d2ae5"/>
    </radialGradient>
    <linearGradient id="linear-gradient-16" x1="0.898" y1="0.096" x2="-0.063" y2="1.106" gradientUnits="objectBoundingBox">
      <stop offset="0" stop-color="#ff9000"/>
      <stop offset="0.345" stop-color="#ffd399"/>
      <stop offset="0.716" stop-color="#ffd399"/>
      <stop offset="1" stop-color="#ff9000"/>
    </linearGradient>
    <linearGradient id="linear-gradient-17" x1="0.819" y1="0.117" x2="0.449" y2="0.636" gradientUnits="objectBoundingBox">
      <stop offset="0" stop-color="#f2582c"/>
      <stop offset="0.552" stop-color="#f57956"/>
    </linearGradient>
    <linearGradient id="linear-gradient-18" x1="1.38" y1="0.148" x2="0.186" y2="0.597" gradientUnits="objectBoundingBox">
      <stop offset="0" stop-color="#f2582c"/>
      <stop offset="1" stop-color="#f57956"/>
    </linearGradient>
    <linearGradient id="linear-gradient-19" x1="0.714" y1="0.804" x2="0.564" y2="0.524" xlink:href="#linear-gradient-18"/>
    <radialGradient id="radial-gradient-2" cx="0.5" cy="0.026" r="0.389" gradientUnits="objectBoundingBox">
      <stop offset="0" stop-color="#f2582c"/>
      <stop offset="0.331" stop-color="#f36036" stop-opacity="0.667"/>
      <stop offset="0.89" stop-color="#f47550" stop-opacity="0.11"/>
      <stop offset="1" stop-color="#f57956" stop-opacity="0"/>
    </radialGradient>
    <linearGradient id="linear-gradient-20" x1="0.084" y1="0.232" x2="0.709" y2="1.056" xlink:href="#linear-gradient-18"/>
    <linearGradient id="linear-gradient-21" x1="1.974" y1="-0.667" x2="0.019" y2="0.771" gradientUnits="objectBoundingBox">
      <stop offset="0.003" stop-color="#ffaf47"/>
      <stop offset="1" stop-color="#ff9000"/>
    </linearGradient>
    <linearGradient id="linear-gradient-22" x1="1.315" y1="0.12" x2="0.407" y2="0.711" gradientUnits="objectBoundingBox">
      <stop offset="0" stop-color="#ffaf47"/>
      <stop offset="1" stop-color="#ff9000"/>
    </linearGradient>
    <radialGradient id="radial-gradient-3" cx="1.443" cy="0.319" r="1.215" gradientUnits="objectBoundingBox">
      <stop offset="0.401" stop-color="#5d2ae5"/>
      <stop offset="1" stop-color="#a386f0" stop-opacity="0"/>
    </radialGradient>
    <linearGradient id="linear-gradient-23" x1="0.091" y1="0.632" x2="1.03" y2="0.34" gradientUnits="objectBoundingBox">
      <stop offset="0.264" stop-color="#ffd399"/>
      <stop offset="1" stop-color="#ffa633"/>
    </linearGradient>
    <linearGradient id="linear-gradient-24" x1="0.055" y1="1.43" x2="0.733" y2="-0.191" gradientUnits="objectBoundingBox">
      <stop offset="0" stop-color="#5d2ae5"/>
      <stop offset="0.738" stop-color="#754ae9"/>
    </linearGradient>
    <linearGradient id="linear-gradient-25" x1="-0.003" y1="0.176" x2="1.1" y2="0.757" xlink:href="#linear-gradient-9"/>
    <linearGradient id="linear-gradient-26" x1="0.525" y1="0.956" x2="0.425" y2="0.119" gradientUnits="objectBoundingBox">
      <stop offset="0.082" stop-color="#9270ee"/>
      <stop offset="0.319" stop-color="#9270ee"/>
      <stop offset="1" stop-color="#5d2ae5"/>
    </linearGradient>
    <linearGradient id="linear-gradient-27" x1="-0.29" y1="1.012" x2="0.458" y2="0.556" gradientUnits="objectBoundingBox">
      <stop offset="0" stop-color="#5d2ae5"/>
      <stop offset="1" stop-color="#9270ee"/>
    </linearGradient>
    <linearGradient id="linear-gradient-28" x1="1.055" y1="-0.6" x2="0.515" y2="0.646" xlink:href="#linear-gradient-27"/>
    <linearGradient id="linear-gradient-29" x1="0.002" y1="0.507" x2="1" y2="0.507" xlink:href="#linear-gradient-2"/>
    <linearGradient id="linear-gradient-30" x1="0.694" y1="0.237" x2="0.171" y2="0.95" xlink:href="#linear-gradient"/>
    <linearGradient id="linear-gradient-31" x1="0.947" y1="1.35" x2="0.386" y2="0.284" xlink:href="#linear-gradient-2"/>
    <linearGradient id="linear-gradient-32" x1="1.193" y1="-0.005" x2="0.031" y2="0.991" xlink:href="#linear-gradient-3"/>
    <linearGradient id="linear-gradient-33" x1="1.175" y1="0.011" x2="0.014" y2="1.008" xlink:href="#linear-gradient-3"/>
    <linearGradient id="linear-gradient-34" x1="1.191" y1="0.109" x2="-0.286" y2="1.151" xlink:href="#linear-gradient-5"/>
    <linearGradient id="linear-gradient-35" x1="2.254" y1="2.199" x2="0.428" y2="0.428" xlink:href="#linear-gradient-6"/>
    <linearGradient id="linear-gradient-36" x1="0" y1="0.502" x2="0.999" y2="0.502" xlink:href="#linear-gradient-7"/>
    <linearGradient id="linear-gradient-37" y1="0.506" x2="1" y2="0.506" gradientUnits="objectBoundingBox">
      <stop offset="0" stop-color="#1b0c69"/>
      <stop offset="0.272" stop-color="#665c9a"/>
      <stop offset="0.825" stop-color="#665c9a"/>
      <stop offset="1" stop-color="#1b0c69"/>
    </linearGradient>
  </defs>
  <g id="LF_lifting-01" transform="translate(-0.312 -0.296)">
    <g id="Group">
      <path id="Shape" d="M90.876,12.772h-.211L4.537,9.5A4.753,4.753,0,0,1,4.959,0L91.086,3.275a4.751,4.751,0,0,1-.211,9.5Z" transform="translate(0.312 286.807)" fill="#665c9a"/>
      <g id="Group-2" data-name="Group" transform="translate(30.194 220.164)">
        <g id="Group-3" data-name="Group" transform="translate(0)">
          <g id="Group-4" data-name="Group" transform="translate(0)">
            <path id="Shape-2" data-name="Shape" d="M73.238.74,29.278,0C15.363-.21,2.4,32.819.288,73.761s7.59,74.288,21.506,74.5l43.96.739c14.021.211,26.987-32.818,29.1-73.655C96.852,34.3,87.259.951,73.238.74Z" transform="translate(0.089 0.167)" fill="url(#linear-gradient)"/>
            <path id="Shape-3" data-name="Shape" d="M50.892,74.5c-2.108,40.943-15.075,73.971-29.1,73.655S-1.818,114.6.29,73.657,15.365-.314,29.386,0C43.3.213,52.895,33.558,50.892,74.5Z" transform="translate(44.047 0.904)" fill="url(#linear-gradient-2)"/>
          </g>
          <path id="Shape-4" data-name="Shape" d="M27.825.106,22.343,0C11.063,10.025,2.1,38.832.311,73.76s4.322,64.052,14.442,74.394l5.482.106C9.06,142.983,1.576,111.01,3.473,73.866,5.371,36.616,16.124,4.96,27.825.106Z" transform="translate(10.82 0.273)" fill="url(#linear-gradient-3)"/>
          <path id="Shape-5" data-name="Shape" d="M27.825.106,22.343,0C11.063,10.025,2.1,38.832.311,73.76s4.322,64.052,14.442,74.394l5.482.106C9.06,142.983,1.576,111.01,3.473,73.866S16.124,4.96,27.825.106Z" transform="translate(25.789 0.484)" fill="url(#linear-gradient-4)"/>
          <path id="Shape-6" data-name="Shape" d="M27.825.106,22.343,0C11.063,10.025,2.1,38.832.311,73.76s4.322,64.052,14.442,74.394l5.482.106C9.06,142.983,1.576,111.01,3.473,73.866,5.476,36.722,16.229,4.96,27.825.106Z" transform="translate(43.921 0.801)" fill="url(#linear-gradient-5)"/>
        </g>
        <path id="Shape-7" data-name="Shape" d="M18.756,25.643c-.738,14.035-5.482,25.431-10.647,25.325S-.642,39.466.1,25.326,5.578-.1,10.744,0,19.493,11.608,18.756,25.643Z" transform="translate(62.9 49.552)" fill="url(#linear-gradient-6)"/>
      </g>
      <path id="Shape-8" data-name="Shape" d="M105.424,14.144h-.211L4.537,9.5A4.753,4.753,0,0,1,4.959,0L105.634,4.647a4.751,4.751,0,0,1-.211,9.5Z" transform="translate(375.079 303.479)" fill="#665c9a"/>
      <path id="Shape-9" data-name="Shape" d="M136.333,16.043h-.211L2.661,9.5C.026,9.4-.08,7.18.026,4.541S.447-.1,3.083,0L136.544,6.546a4.751,4.751,0,0,1-.211,9.5Z" transform="translate(101.915 290.605)" fill="url(#linear-gradient-7)"/>
      <path id="Shape-10" data-name="Shape" d="M36.386,0c-25.933,0-18.87,24.27-20.03,34.506s-4.322,19.733-6.22,32.079S3.179,84.207,3.39,102.146c.105,12.346-.633,24.692-.633,37.038-.105,7.07-.211,14.246.316,21.421.211,2.744.949,8.758.949,8.758.105.422-4.322,15.617-4.006,17.622a40.432,40.432,0,0,0,4.006,12.03A6.062,6.062,0,0,0,5.6,201.337a5.8,5.8,0,0,0,2.635,1.055c4.322.95,8.644,1.9,13.072,2.955a3.775,3.775,0,0,0,2.635,0c.843-.317,1.265-1.161,1.792-1.9,1.37-2.322,2.741-4.537,4.217-6.859,1.16-1.9,2.425-3.9,2.635-6.226.316-3.377-1.687-6.437-3.584-9.18-2.635-3.9-5.693-8.442-8.328-12.452a6.023,6.023,0,0,1-.527-5.8c5.376-12.03,11.174-33.556,14.232-45.375,1.581-5.909.949-12.557-.105-18.572a13.4,13.4,0,0,0,1.054-1.266C49.036,78.614,54.518,0,36.386,0Z" transform="translate(174.769 108.266)" fill="#ffd399"/>
      <path id="Shape-11" data-name="Shape" d="M35.794,0,32.737.317c-4.006-.844-8.012,2.216-9.8,5.909s-1.9,7.914-2.108,12.03A229.75,229.75,0,0,1,17.24,47.591c-.949,5.382-3.057,11.819-8.434,12.979-1.687.317-3.479.106-4.849,1.161-1.16.844-1.581,2.427-1.792,3.9-1.16,7.914.527,15.934,1.476,23.848A117.446,117.446,0,0,1,.584,132.748a10.8,10.8,0,0,0-.527,4.01c.316,1.9,1.9,3.482,3.163,4.96,2.319,2.638,16.762,17.306,16.973,14.984.316-3.377-1.687-6.437-3.584-9.18-2.635-3.9-5.693-8.442-8.328-12.452a6.023,6.023,0,0,1-.527-5.8c5.376-12.03,11.174-33.556,14.232-45.375,1.581-5.909.949-12.557-.105-18.572a13.4,13.4,0,0,0,1.054-1.266C30.945,53.394,36,23.848,35.794,0Z" transform="translate(186.852 141.822)" fill="url(#linear-gradient-8)"/>
      <path id="Shape-12" data-name="Shape" d="M29.623.957C22.454,3.384,14.653,2.435,7.274.746,4.849.219,2.319-.309,0,.219A50.982,50.982,0,0,0,2.425,5.706,6.062,6.062,0,0,0,4.006,8.027,5.8,5.8,0,0,0,6.641,9.082c4.322.95,8.644,1.9,13.072,2.955a3.776,3.776,0,0,0,2.635,0c.843-.317,1.265-1.161,1.792-1.9,1.37-2.321,2.741-4.537,4.217-6.859C28.674,2.54,29.2,1.8,29.623.957Z" transform="translate(176.367 301.471)" fill="url(#linear-gradient-9)"/>
      <g id="Group-5" data-name="Group" transform="translate(202.406 174.112)">
        <path id="Shape-13" data-name="Shape" d="M109.536,5.93a10.016,10.016,0,0,0-3.584-4.221A11.618,11.618,0,0,0,100.575.338c-34.156-3.271-73.9,17.939-87.077,32.5S.216,56.054,0,61.646C-.311,68.611,15.08,110.292,19.613,118.1c7.379,12.557,18.976,24.587,26.355,37.144,2.741,4.643.738,19.627,4.955,22.265,4.638,2.849,10.858-6.015,15.5-8.758-7.59-16.989-12.334-41.259-9.909-61.52C55.35,92.987,37.429,75.681,38.167,75.786c2.635.422,7.906-.95,10.964-1.9,7.8-2.533,43.222-14.773,53.026-26.17C112.066,36.215,116.81,19.121,109.536,5.93Z" transform="translate(0.628 0.401)" fill="#ffc67d"/>
        <path id="Shape-14" data-name="Shape" d="M21.072,48.93A291.781,291.781,0,0,0,54.384,35.74L43.632,18.329a8.952,8.952,0,0,0-2.214-2.638C39.2,14.319,30.665-1.193,28.451.073,17.487,6.3,1.885,43.549.2,48.93c-1.792,5.382,9.066,17.939,11.491,25.22,2.53,7.387,4.744,18.255,8.117,25.325,8.644,18.572,12.229,47.38,13.072,48.857a32.639,32.639,0,0,1,5.482-4.537c-7.59-16.989-12.334-41.259-9.909-61.52C27.291,68.03,9.37,50.724,10.108,50.83,12.638,51.146,18.015,49.88,21.072,48.93Z" transform="translate(28.792 25.252)" fill="url(#linear-gradient-10)"/>
        <path id="Shape-15" data-name="Shape" d="M101.308,1.71A11.618,11.618,0,0,0,95.932.338c-34.156-3.271-73.9,17.939-87.077,32.5A68.563,68.563,0,0,0,0,44.763c6.22-.739,36.686,18.889,44.487,29.019,1.37.422,43.222-14.773,53.026-26.17s14.548-28.491,7.274-41.681A10.293,10.293,0,0,0,101.308,1.71Z" transform="translate(5.271 0.401)" fill="url(#linear-gradient-11)"/>
        <path id="Shape-16" data-name="Shape" d="M77.694,1.372A11.618,11.618,0,0,0,72.318,0h-.527a13.352,13.352,0,0,1,1.9,10.341c-.843,3.271-3.057,5.909-5.482,8.231C60.616,26.064,51.128,31.34,41.746,36.3,28.147,43.475,14.232,50.229,0,56.138c8.75,5.8,17.289,12.557,20.978,17.306C22.349,73.866,64.2,58.671,74,47.274S88.552,18.783,81.278,5.593A11.475,11.475,0,0,0,77.694,1.372Z" transform="translate(28.885 0.739)" fill="url(#linear-gradient-12)"/>
      </g>
      <path id="Shape-17" data-name="Shape" d="M7.485,49.279C10.437,58.565,0,63.736,0,63.736c7.379,6.226,27.3,17.939,41.641,17.411,7.169-.211,26.777-1.794,30.993-7.7,4.006-5.593,16.973-13.823,14.653-20.26S76.956,25.748,72.529,20.471C60.3,6.226,30.255,12.03,15.708,0Z" transform="translate(258.278 118.291)" fill="url(#linear-gradient-13)"/>
      <g id="Group-6" data-name="Group" transform="translate(292.012 161.45)">
        <path id="Shape-18" data-name="Shape" d="M75.463,1.806A8.958,8.958,0,0,0,70.929.012a11.983,11.983,0,0,0-4.744,1.055C38.144,12.463-2.126,65.858.088,74.722c.738,2.744,9.7,30.918,18.448,56.033s16.973,31.868,18.554,49.7c5.166.211,12.018,8.547,14.548,4.01,2.319-4.115.843-20.26.949-25.009.316-12.768,4.955-28.386,5.271-41.154.211-7.914-10.12-29.652-15.918-30.179,0-.211,7.169-2.427,20.557-14.457,13.283-12.03,21.295-23.637,24.247-36.511C89.694,24.387,86.426,9.087,75.463,1.806Z" transform="translate(0.123 0.199)" fill="#ffd399"/>
        <path id="Shape-19" data-name="Shape" d="M28.121,0C23.482,2.955,3.979,38.621.606,47.7s8.223,16.25,12.967,37.566c2.425,10.763,5.482,62.047,5.9,62.786a2.264,2.264,0,0,0,2.425-1.266c2.319-4.115.843-20.26.949-25.009C23.166,109,27.8,93.388,28.121,80.619,28.331,72.705,18,50.967,12.2,50.44c0-.106,9.7-3.588,20.557-14.457Z" transform="translate(29.86 37.988)" fill="url(#linear-gradient-14)"/>
        <path id="Shape-20" data-name="Shape" d="M63.779,1.806A8.958,8.958,0,0,0,59.246.012,11.983,11.983,0,0,0,54.5,1.067C36.581,8.348,13.6,32.829,0,51.929c10.753,4.96,20.03,13.507,28.78,21.738,3.057,2.849,5.587,8.125,7.063,11.819,4.322-2.11,9.909-7.176,15.075-11.713C64.2,61.742,72.212,50.135,75.164,37.261,78.01,24.387,74.742,9.087,63.779,1.806Z" transform="translate(11.807 0.199)" fill="#a386f0"/>
        <path id="Shape-21" data-name="Shape" d="M38.611,0c-.843,3.8-3.479,21.316-9.488,33.662S-.921,67.429.027,68.484c2,2.11,3.163,6.437,4.111,8.864,4.322-2.11,9.909-7.176,15.075-11.713C32.5,53.606,40.508,42,43.46,29.124,45.885,19.205,44.409,8.02,38.611,0Z" transform="translate(43.3 8.336)" fill="url(#linear-gradient-15)"/>
      </g>
      <path id="Shape-22" data-name="Shape" d="M23.614,16.763C41.535,2.729,65.466-2.125,88.025.829S125.449,9.693,143.687,23.2c5.693,4.221,8.539,18.255,9.909,25.325s6.958,9.708,2.53,15.3C147.587,74.8,135.78,82.5,123.763,89.468c-6.747,3.9-13.7,7.6-21.295,9.814-12.861,3.693-26.671,2.533-39.532-.95s-20.662-9.5-32.68-15.406c0,0-5.9-16.462-11.912-23.426S0,44.41,0,44.41C.105,33.33,14.97,23.517,23.614,16.763Z" transform="translate(191.442 78.84)" fill="url(#radial-gradient)"/>
      <g id="Group-7" data-name="Group" transform="translate(202.406)">
        <path id="Shape-23" data-name="Shape" d="M60.209,46.733A19.668,19.668,0,0,0,64.215,42.2c2.214-3.377,3.479-8.547-2-10.658-.527-.211-.211-2.321-.633-2.321A33.922,33.922,0,0,0,60.1,21.83c.105-2.638-.633-5.487-2.53-8.969-8.012-14.246-39.532-22.9-49.231,8.547-9.7,31.129-14.232,54.028,5.06,63-.316,6.12-.633,14.246.211,18.044,20.662,16.145,51.972-6.226,54.713-15.723C69.486,82.4,61.368,54.437,60.209,46.733Z" transform="translate(8.736 8.455)" fill="#ffd399"/>
        <path id="Shape-24" data-name="Shape" d="M48.809,81.78a5.142,5.142,0,0,0-.105-1.266v-.422a8.285,8.285,0,0,0-.211-1.477V78.4a21.849,21.849,0,0,0-.422-2.321h0c-1.792-10.025-6.641-27.225-7.485-33.029a19.668,19.668,0,0,0,4.006-4.537c2.214-3.377,3.479-8.547-2-10.658-.527-.211-.211-2.321-.633-2.321a34.788,34.788,0,0,0-1.476-7.492c-.527-.633-.949-1.266-1.476-2-2.846-4.01-5.482-8.231-9.382-11.291a15.085,15.085,0,0,0-1.581-1.161C23.509,2.11,17.921.95,13.6,0c-.422,0-.738.106-1.16.106a2.925,2.925,0,0,0-2.53,1.477c0,.844.105,1.583.105,2.321a5.743,5.743,0,0,1,0,1.9C10.226,21.949,7.7,22.793,2.635,40.415,1.687,43.9.738,46.747,0,49.385.105,54.661.738,62.364.738,65c.105,7.281,4.955,6.964,5.587,14.14v.106a4.593,4.593,0,0,0,.316,2.638c.105.739.105,1.477.211,2.216L7.169,84c1.054,5.593,3.163,19.944,3.163,20.26h.316a37.093,37.093,0,0,0,6.958-.633c12.861-2.321,24.879-11.08,29.412-17.411.211-.211.316-.528.527-.739,0-.106.105-.106.105-.211.211-.422.527-.844.633-1.161h0a5.147,5.147,0,0,0,.422-1.161,2.344,2.344,0,0,0,.105-.95Z" transform="translate(28.252 12.135)" fill="url(#linear-gradient-16)"/>
        <path id="Shape-25" data-name="Shape" d="M25.39.127C-2.968,1.5-1.281,20.07,1.355,21.864a11.364,11.364,0,0,0,9.066,1.266,55.477,55.477,0,0,0,8.855-3.166,67.529,67.529,0,0,1,16.973-3.8c2.319-.106,5.376.633,5.482,2.955,0,1.372-1.054,2.533-1.054,3.9a4.052,4.052,0,0,0,1.37,2.638,20.6,20.6,0,0,0,4.006,3.377c1.9,1.161,4.111,2.216,5.166,4.221,1.9,3.9-2,8.442-1.476,12.768a1.2,1.2,0,0,0,.316.844c.633,1.055,2.53.528,3.163-.633s.633-2.533,1.054-3.693a5.216,5.216,0,0,1,4.638-3.588,5.471,5.471,0,0,1,5.06,2.849c1.37-3.482,1.37-7.387.949-11.08-.422-5.065-1.37-12.874-4.217-16.989C57.227,8.885,53.748-1.245,25.39.127Z" transform="translate(10.242 0.296)" fill="#f57956"/>
        <path id="Shape-26" data-name="Shape" d="M58.93,25.862A32.876,32.876,0,0,0,54.08,11.933C50.918,6.868,45.33-1.046,20.135.115,10.015.642,3.8,3.28,0,6.657a2.743,2.743,0,0,0,1.581.422A18.6,18.6,0,0,0,8.75,5.918C15.918,3.7,23.3.642,30.572,2.225c6.114,1.266,3.163,7.176,7.063,10.341,4.006,3.166,8.117,1.161,10.015,7.176,1.9,5.909,10.331,1.161,5.693,19.205,0,0,4.111,1.055,5.06,2.849C60.405,36.731,59.457,30.927,58.93,25.862Z" transform="translate(15.497 0.307)" fill="url(#linear-gradient-17)"/>
        <g id="Group-8" data-name="Group" transform="translate(0 49.596)">
          <g id="Group-9" data-name="Group">
            <path id="Shape-27" data-name="Shape" d="M5.624,45.742C-.807,39.621.036,34.028.036,30.546c.106-2.955,1.793-15.723,2.636-18.572s5.06-9.6,7.484-7.915c0,0-2.319,8.758-1.264,16.989a14.544,14.544,0,0,1,5.165-4.96c3.9-2.005,7.274-4.115,17.71-1.688,7.7,1.794,10.015,5.065,11.6,8.231,5.8-11.185,12.861-10.024,15.5-17.411.527-1.478,0-4.221,1.264-5.065S63.288,1.844,62.55,9.23c-.633,7.493.105,30.39-14.442,36.722a61.663,61.663,0,0,1-23.675,4.567C16.181,50.519,8.921,48.879,5.624,45.742Z" transform="translate(0.596 0.161)" fill="url(#linear-gradient-18)"/>
            <path id="Shape-28" data-name="Shape" d="M0,34.822A20.182,20.182,0,0,0,2.846,38.2c6.431,6.12,27.936,6.542,42.484.211C59.878,31.973,59.14,9.18,59.773,1.688c0-.633.105-1.161.105-1.688l-.105.106A5.223,5.223,0,0,0,58.3,2.533C55.24,10.025,53.553,18.255,48.809,24.9A28.678,28.678,0,0,1,25.2,36.722C16.762,36.511,8.012,32.607,0,34.822Z" transform="translate(3.373 7.703)" fill="url(#linear-gradient-19)"/>
          </g>
          <path id="Shape-29" data-name="Shape" d="M19.5,4.643a18.335,18.335,0,0,0-8.012-3.588A72.554,72.554,0,0,0,1.687,0C1.16,1.266-.1,2,.106,3.377c.316,1.372-1.9,6.12,4.849,5.487S16.762,14.14,16.762,14.14C18.449,13.718,18.976,6.331,19.5,4.643Z" transform="translate(20.872 13.507)" fill="url(#radial-gradient-2)"/>
        </g>
        <path id="Shape-30" data-name="Shape" d="M6.011,25.228C.318,16.259,4.64.009,4.64.009,4.008-.414-.1,14.887,0,18.37c.105,3.377,4.111,14.14,7.485,14.773a14.18,14.18,0,0,0,5.587-.317,5.626,5.626,0,0,0,3.268-1.583.327.327,0,0,0,.105-.211C11.914,30.61,8.119,28.605,6.011,25.228Z" transform="translate(6.218 53.702)" fill="url(#linear-gradient-20)"/>
        <path id="Shape-31" data-name="Shape" d="M1.484,2.682C.008,5.426-.414,7.43.43,9.646,1.379,11.862,9.5,4.159,7.6,1.521S2.96-.062,1.484,2.682Z" transform="translate(65.036 42.587)" fill="url(#linear-gradient-21)"/>
        <g id="Group-10" data-name="Group" transform="translate(22.138 34.822)">
          <path id="Shape-32" data-name="Shape" d="M8.055,7.729A63.141,63.141,0,0,1,2.679,17.964a15.492,15.492,0,0,0-2.425,4.96c-.843,3.271.422,7.492,3.69,8.442a6.436,6.436,0,0,0,6.22-2.11A14.39,14.39,0,0,0,13.22,23.03,79.227,79.227,0,0,0,16.067,3.086,2.965,2.965,0,0,0,10.374,1.82Z" transform="translate(0.062 0.185)" fill="#ffb14c"/>
          <path id="Shape-33" data-name="Shape" d="M14.759,0c-.843,4.326-1.37,8.653-2.425,12.874-1.265,4.537-3.373,9.075-6.958,12.241a6.411,6.411,0,0,1-4.533,2H0a5.132,5.132,0,0,0,3.268,3.166,6.436,6.436,0,0,0,6.22-2.11,14.39,14.39,0,0,0,3.057-6.226A79.227,79.227,0,0,0,15.391,2,1.992,1.992,0,0,0,14.759,0Z" transform="translate(0.633 1.161)" fill="url(#linear-gradient-22)"/>
        </g>
      </g>
      <path id="Shape-34" data-name="Shape" d="M30.15,25.757C28.463,20.586,20.557.853,15.075.009,11.28-.518,3.8,21.852,0,22.591c1.476,6.542,5.693,8.02,5.376,14.668a5.887,5.887,0,0,0,.738,4.01,5.673,5.673,0,0,0,2.214,1.583c5.06,2.427,20.768.317,20.978-1.055A110.424,110.424,0,0,0,30.15,25.757Z" transform="translate(322.373 184.867)" fill="url(#radial-gradient-3)"/>
      <g id="Group-11" data-name="Group" transform="translate(299.392 97.757)">
        <path id="Shape-35" data-name="Shape" d="M81.085,185.847c5.587-15.2,6.536-47.485,5.482-53.817-.843-4.854-5.166-14.562-7.169-21.1-2.108-6.753-4.533-14.246-6.641-21.949-4.217-15.2-7.063-27.119-14.337-42.948C55.362,39.276,51.462,30.2,49.88,27.246c-2.108-4.115-.105-7.281-5.166-13.4C34.278,1.182,26.793-2.3,17.938,1.393S-2.935,10.257.649,32.417C2.231,42.547,15.2,51.939,15.2,51.939,21,65.868,26.161,74.1,29.429,83.7c4.533,13.4,11.385,19.838,18.448,24.587,3.057,2,.843,17.622,3.69,28.28s12.756,46.324,14.548,53.5-13.388,22.9-12.334,27.225c1.054,2.638,4.428,6.542,6.22,8.336s10.858-2.427,15.391-4.115c3.479-1.266,8.223-3.8,8.012-5.065-.316-1.161-.316-3.482-1.37-5.487-.949-1.9-.633-3.588-.527-5.487.105-3.482-1.16-6.753-2.319-10.025C78.238,192.389,80.347,187.957,81.085,185.847Z" transform="translate(0.826 0.674)" fill="#ffd399"/>
        <path id="Shape-36" data-name="Shape" d="M65.676,186.459c.105.528.211.95.316,1.372.843,3.271-2,8.442-5.06,13.4.211-.106.527-.211.738-.317a23.225,23.225,0,0,0,5.9-3.377c.843-.739,1.581-1.688,2.425-2.533a25.666,25.666,0,0,0,3.163-3.588,4.719,4.719,0,0,0,.527-4.537c-.105-.211-.316-.422-.422-.633,0-17.306-.211-38.516-1.265-54.977-.316-6.12-9.066-11.185-8.539-17.306.316-3.377.843-6.753.527-10.025-.316-3.377-1.687-6.859-4.428-8.758-7.379-5.065-12.018-14.457-12.756-17.517-2.741-10.236-4.955-16.673-7.7-26.908-1.37-5.382-2.53-11.291-6.958-13.929s-5.376,1.9-12.861-7.914C11.7,19.1,20.978,6.226,15.6,0h0c-.527.211-1.054.422-1.476.633-.105,0-.211.106-.316.106-.422.211-.843.422-1.37.633-.105.106-.211.106-.422.211a7.861,7.861,0,0,0-1.265.739c-.105.106-.211.106-.316.211a13.425,13.425,0,0,0-2,1.372c-.316.211-.527.422-.843.633l-.633.633c-.316.211-.527.528-.843.739l-.633.633a5.283,5.283,0,0,0-.738.844,3.207,3.207,0,0,0-.527.739c-.211.317-.527.633-.738.95s-.316.528-.527.844a11.514,11.514,0,0,0-.633,1.161c-.105.317-.316.633-.422.95-.211.422-.316.844-.527,1.266-.105.317-.211.633-.316,1.055s-.316.95-.422,1.477a3.8,3.8,0,0,0-.211,1.161,8.153,8.153,0,0,0-.211,1.583c0,.422-.105.844-.105,1.161A11.48,11.48,0,0,0,0,21.632V22.9A17.9,17.9,0,0,0,.105,25.22a4.333,4.333,0,0,0,.105,1.161c.105,1.266.211,2.427.422,3.8C2.214,40.31,15.18,49.7,15.18,49.7c5.8,13.929,10.964,22.16,14.232,31.762C33.945,94.865,40.8,101.3,47.86,106.05c3.057,2,.843,17.622,3.69,28.28,2.635,10.341,10.542,38.094,14.126,52.128Z" transform="translate(1.054 2.7)" fill="url(#linear-gradient-23)"/>
        <path id="Shape-37" data-name="Shape" d="M43.165,11.5C35.153,1.9,31.041,0,24.716,0A16.91,16.91,0,0,0,18.18,1.372C3.421,7.387-2.06,15.828.68,32.818c.633,4.115,3.584,9.708,8.012,13.4l.422.317.211-.528A81.4,81.4,0,0,1,15.65,33.134C18.918,27.964,24.4,21,31.779,16.989a22.162,22.162,0,0,1,10.542-2.955,22.906,22.906,0,0,1,2.741.106Z" transform="translate(0.479 0.168)" fill="url(#linear-gradient-24)"/>
      </g>
      <path id="Shape-38" data-name="Shape" d="M21.611,9.075c3.479-1.266,8.223-3.8,8.012-5.065A12.228,12.228,0,0,0,28.885,0,99.6,99.6,0,0,1,0,4.643v.211C1.054,7.492,4.428,11.4,6.22,13.19S17.078,10.763,21.611,9.075Z" transform="translate(354.104 310.659)" fill="url(#linear-gradient-25)"/>
      <g id="Group-12" data-name="Group" transform="translate(215.733 334.128)">
        <path id="Shape-39" data-name="Shape" d="M3.95,34.791C1.314,34.9-1.743,29.937,1.209,24.45c3.9-7.07,18.132-6.437,30.888-20.788.633-.633.949-1.583,1.792-1.9a3.034,3.034,0,0,1,2.635.739c2.53,1.688-.316,7.809,2.319,9.286,7.063.106,12.018-5.593,11.912-6.859A23.477,23.477,0,0,0,50.018.18c1.16-.633,2.425.528,3.057,1.583,3.268,5.382,3.584,11.924,3.9,18.15a11.967,11.967,0,0,1-.422,4.749,7.81,7.81,0,0,1-2.741,3.377c-3.479,2.638-8.012,3.271-12.44,3.693C31.675,32.575,3.95,34.791,3.95,34.791Z" transform="translate(0.117 0.304)" fill="#9270ee"/>
        <path id="Shape-40" data-name="Shape" d="M41.43,19.965c-.316-6.226-.633-12.768-3.9-18.15C36.9.654,35.526-.507,34.472.232A24.689,24.689,0,0,1,35.21,4.98c.105,1.266-4.849,7.07-11.912,6.859a1.861,1.861,0,0,1-.843-.95h0c-4.638,5.593-6.431,11.4-12.756,14.879A55.815,55.815,0,0,0,3.69,29.251,10.1,10.1,0,0,0,0,34H.316c.422,0,.949-.106,1.476-.106,2.108-.211,4.217-.317,6.431-.528.738-.106,1.476-.106,2.214-.211a1.792,1.792,0,0,0,.738-.106c.843-.106,1.687-.106,2.635-.211.422,0,.843-.106,1.265-.106.633,0,1.16-.106,1.792-.106.527,0,1.054-.106,1.581-.106.633,0,1.16-.106,1.792-.106.316,0,.633-.106.949-.106.633-.106,1.265-.106,1.9-.211a2.319,2.319,0,0,0,.843-.106c.843-.106,1.581-.106,2.214-.211,4.322-.422,8.855-1.055,12.44-3.693a7.81,7.81,0,0,0,2.741-3.377A23.842,23.842,0,0,0,41.43,19.965Z" transform="translate(15.663 0.252)" fill="url(#linear-gradient-26)"/>
        <path id="Shape-41" data-name="Shape" d="M5.619,40.4c-3.268-.317-4.533-.95-4.849-1.688a10.226,10.226,0,0,1,3.373-12.03C10.046,21.932,12.682,12.646,13.42,6a7.506,7.506,0,0,1,1.054-3.693C15.317,1.039,16.161.722,19.85.195s7.59.106,8.434.844c1.476,1.266,1.054,3.693,2,5.382.949,1.794,1.581.95,2.635-1.9s2.319,6.331,3.584,12.663c2.53,12.03,3.373,6.015-9.382,21.632a6.24,6.24,0,0,1-3.9,2.11C17,41.56,8.887,40.715,5.619,40.4Z" transform="translate(96.278 2.611)" fill="url(#linear-gradient-27)"/>
        <path id="Shape-42" data-name="Shape" d="M25.27,25.121c-2.635,2.427-8.855,3.9-13.072,4.01A101.931,101.931,0,0,1,.5,27.759a8.97,8.97,0,0,0,.316,6.753c.422.739,1.581,1.372,4.849,1.688s11.174,1.161,17.394.633h.211c.211,0,.316-.106.527-.106a8.183,8.183,0,0,0,3.163-1.794l.211-.211c6.22-7.6,9.172-10.13,10.331-12.03.105-.106.105-.317.211-.422a.388.388,0,0,0,.105-.317c0-.106.105-.317.105-.422s.105-.211.105-.317V19.423c0-.211-.105-.422-.105-.633,0-.106-.105-.317-.105-.422-.105-.317-.105-.633-.211-1.055-.105-.317-.105-.633-.211-.95a3.125,3.125,0,0,1-.211-1.055c-.105-.633-.316-1.372-.422-2.11C35.39,6.865,34.125-2.315,33.176.534s-1.687,3.693-2.635,1.9h0C30.014,8.554,27.905,22.694,25.27,25.121Z" transform="translate(96.235 6.915)" fill="url(#linear-gradient-28)"/>
      </g>
      <path id="Shape-43" data-name="Shape" d="M34.9,10.978h-.211L4.537,9.5A4.753,4.753,0,0,1,4.959,0l30.15,1.477a4.732,4.732,0,0,1,4.533,4.96A4.681,4.681,0,0,1,34.9,10.978Z" transform="translate(378.241 303.374)" fill="url(#linear-gradient-29)"/>
      <g id="Group-13" data-name="Group" transform="translate(454.358 239.158)">
        <g id="Group-14" data-name="Group" transform="translate(0 0)">
          <g id="Group-15" data-name="Group" transform="translate(0 0)">
            <path id="Shape-44" data-name="Shape" d="M73.344.74,29.384,0C15.363-.21,2.4,32.819.288,73.656c-2.108,40.943,7.59,74.288,21.506,74.5l43.96.739c14.021.211,26.987-32.818,29.1-73.655S87.365.951,73.344.74Z" transform="translate(0.028 0.167)" fill="url(#linear-gradient-30)"/>
            <path id="Shape-45" data-name="Shape" d="M50.892,74.5c-2.108,40.943-15.075,73.971-29.1,73.655C7.775,147.945-1.818,114.6.29,73.657S15.365-.314,29.386,0C43.3.213,52.895,33.664,50.892,74.5Z" transform="translate(44.091 0.904)" fill="url(#linear-gradient-31)"/>
          </g>
          <path id="Shape-46" data-name="Shape" d="M27.825.106,22.343,0C11.063,10.025,2.1,38.832.311,73.76s4.322,64.052,14.442,74.394l5.482.106C9.06,142.983,1.576,111.01,3.473,73.866S16.124,4.96,27.825.106Z" transform="translate(10.864 0.273)" fill="url(#linear-gradient-32)"/>
          <path id="Shape-47" data-name="Shape" d="M27.825.106,22.343,0C11.063,10.025,2.1,38.832.311,73.76s4.322,64.052,14.442,74.394l5.482.106C9.06,142.983,1.576,111.01,3.473,73.866S16.124,5.065,27.825.106Z" transform="translate(25.833 0.484)" fill="url(#linear-gradient-33)"/>
          <path id="Shape-48" data-name="Shape" d="M27.825.106,22.343,0C11.063,10.025,2.1,38.832.311,73.76s4.322,64.052,14.442,74.394l5.482.106C9.06,142.983,1.576,111.01,3.473,73.866,5.476,36.722,16.229,4.96,27.825.106Z" transform="translate(43.966 0.801)" fill="url(#linear-gradient-34)"/>
        </g>
        <path id="Shape-49" data-name="Shape" d="M18.756,25.643c-.738,14.035-5.482,25.431-10.647,25.325S-.642,39.466.1,25.326,5.578-.1,10.744,0,19.493,11.608,18.756,25.643Z" transform="translate(62.945 49.552)" fill="url(#linear-gradient-35)"/>
      </g>
      <path id="Shape-50" data-name="Shape" d="M73.062,12.561h-.211L3.8,9.5C1.166,9.4-.1,7.074.006,4.436S1.587-.1,4.223,0l69.05,3.06a4.732,4.732,0,0,1,4.533,4.96A4.9,4.9,0,0,1,73.062,12.561Z" transform="translate(524.983 310.233)" fill="url(#linear-gradient-36)"/>
      <path id="Shape-51" data-name="Shape" d="M159.293,7.5,4.959,0a4.753,4.753,0,0,0-.422,9.5l149.169,7.176A98.292,98.292,0,0,1,159.293,7.5Z" transform="translate(201.137 295.565)" fill="url(#linear-gradient-37)"/>
    </g>
  </g>
</svg>
