<svg xmlns="http://www.w3.org/2000/svg" xmlns:xlink="http://www.w3.org/1999/xlink" width="1174.463" height="1174.161" viewBox="0 0 1174.463 1174.161">
  <defs>
    <linearGradient id="linear-gradient" x1="0.905" y1="0.46" x2="0.085" y2="0.844" gradientUnits="objectBoundingBox">
      <stop offset="0" stop-color="#2cfef6" stop-opacity="0.765"/>
      <stop offset="1" stop-color="#2cfef6" stop-opacity="0"/>
    </linearGradient>
    <radialGradient id="radial-gradient" cx="0.151" cy="0.793" r="0.925" gradientUnits="objectBoundingBox">
      <stop offset="0" stop-color="#a0e9d0"/>
      <stop offset="1" stop-color="#f5fdfa"/>
    </radialGradient>
  </defs>
  <g id="Group_7" data-name="Group 7" transform="translate(-0.049 -0.897)">
    <path id="Shape_Copy_2" data-name="Shape Copy 2" d="M221.366,298.2c6.282-60.043,36.256-115.964,77.9-159.7C346.286,89.216,407.489,54.8,470.847,30.427A459.581,459.581,0,0,1,621.074.137c31.768-.9,80.229,1.792,99.972,33.337,12.743,20.253,9.692,46.6,2.513,69.364-19.923,63.09-67.665,115.606-81.485,180.13-2.513,12.009-3.949,24.555-.718,36.384,9.872,37.1,55.46,49.827,82.742,76.891,36.973,36.564,36.255,99.3,10.41,144.463-25.846,44.988-71.075,75.457-117.2,99.475a783.231,783.231,0,0,1-287.172,84.778c-84.357,7.886-171.586,1.613-249.122-32.8C48.883,678,16.935,656.67,4.909,623.691c-12.564-34.951.718-74.024,20.282-105.569,33.922-54.666,85.075-95.352,140-130.124a124.246,124.246,0,0,0,56.178-89.8Z" transform="translate(514.72 1175.058) rotate(-115)" fill="url(#linear-gradient)"/>
    <path id="Shape" d="M254.585,342.851c7.225-69.033,41.7-133.327,89.585-183.608,54.081-56.669,124.47-96.235,197.335-124.26A528.685,528.685,0,0,1,714.276.157c36.536-1.03,92.268,2.061,114.974,38.329,14.656,23.286,11.147,53.578,2.89,79.749-22.912,72.537-77.819,132.915-93.713,207.1-2.89,13.807-4.541,28.232-.826,41.832,11.353,42.656,63.783,57.287,95.158,88.4,42.522,42.038,41.7,114.163,11.972,166.092-29.724,51.724-81.741,86.755-134.79,114.369A900.966,900.966,0,0,1,379.674,833.5c-97.016,9.067-197.335,1.855-286.507-37.711-36.949-16.28-73.691-40.8-87.521-78.719C-8.8,676.89,6.472,631.967,28.971,595.7c39.013-62.851,97.842-109.629,161.005-149.607,35.917-22.874,59.448-61,64.609-103.241Z" transform="matrix(-0.485, -0.875, 0.875, -0.485, 419.894, 1164.103)" fill="url(#radial-gradient)"/>
  </g>
</svg>
