<svg xmlns="http://www.w3.org/2000/svg" xmlns:xlink="http://www.w3.org/1999/xlink" width="1005.292" height="981.509" viewBox="0 0 1005.292 981.509">
  <defs>
    <linearGradient id="linear-gradient" x1="0.085" y1="0.844" x2="0.905" y2="0.46" gradientUnits="objectBoundingBox">
      <stop offset="0" stop-color="#2cfef6" stop-opacity="0.765"/>
      <stop offset="1" stop-color="#2cfef6" stop-opacity="0"/>
    </linearGradient>
  </defs>
  <path id="Shape" d="M259.456,349.8c7.363-70.432,42.494-136.028,91.3-187.328,55.116-57.817,126.851-98.184,201.11-126.778A538.283,538.283,0,0,1,727.943.16c37.235-1.051,94.034,2.1,117.174,39.106,14.936,23.758,11.36,54.664,2.945,81.365-23.351,74.006-79.308,135.608-95.506,211.3-2.945,14.086-4.628,28.8-.841,42.68,11.57,43.521,65,58.448,96.979,90.2,43.336,42.89,42.494,116.476,12.2,169.457C830.6,687.03,777.589,722.772,723.525,750.945a917.451,917.451,0,0,1-336.587,99.446c-98.872,9.251-201.11,1.892-291.989-38.475-37.656-16.609-75.1-41.628-89.2-80.314-14.726-41,.841-86.831,23.771-123.834,39.759-64.125,99.714-111.85,164.086-152.638,36.6-23.337,60.586-62.232,65.845-105.333Z" transform="translate(133.589) rotate(9)" fill="url(#linear-gradient)"/>
</svg>
